<svg width="35" height="37" viewBox="0 0 35 37" fill="none" xmlns="http://www.w3.org/2000/svg">
<path fill-rule="evenodd" clip-rule="evenodd" d="M17.6826 6.1001L33.1347 36.4063H2.23053L17.6826 6.1001ZM3.90719 35.364H31.4581L17.6826 8.34627L3.90719 35.364Z" fill="#3C3C3C"/>
<path fill-rule="evenodd" clip-rule="evenodd" d="M17.5 1.04225C8.39192 1.04225 1.01449 8.56236 1.01449 17.8277C1.01449 27.0985 8.39202 34.6185 17.5 34.6185C26.608 34.6185 33.9855 27.0985 33.9855 17.8277C33.9855 8.56236 26.6081 1.04225 17.5 1.04225ZM0 17.8277C0 7.97821 7.83997 0 17.5 0C27.16 0 35 7.97821 35 17.8277C35 27.6824 27.1601 35.6607 17.5 35.6607C7.83987 35.6607 0 27.6824 0 17.8277Z" fill="#3C3C3C"/>
<path d="M17.6826 33.2788C18.692 33.2788 19.5087 34.1126 19.5087 35.1392C19.5087 36.1659 18.692 36.9997 17.6826 36.9997C16.6732 36.9997 15.8565 36.1659 15.8565 35.1392C15.8565 34.1126 16.6732 33.2788 17.6826 33.2788Z" fill="#3C3C3C"/>
<path d="M17.6826 33.2788C18.692 33.2788 19.5087 34.1126 19.5087 35.1392C19.5087 36.1659 18.692 36.9997 17.6826 36.9997C16.6732 36.9997 15.8565 36.1659 15.8565 35.1392C15.8565 34.1126 16.6732 33.2788 17.6826 33.2788Z" fill="#3C3C3C"/>
<path d="M31.2058 33.2788C32.2152 33.2788 33.0319 34.1126 33.0319 35.1392C33.0319 36.1659 32.2152 36.9997 31.2058 36.9997C30.1964 36.9997 29.3746 36.1659 29.3746 35.1392C29.3746 34.1126 30.1964 33.2788 31.2058 33.2788Z" fill="#3C3C3C"/>
<path d="M3.06376 33.2788C4.07318 33.2788 4.89492 34.1126 4.89492 35.1392C4.89492 36.1659 4.07318 36.9997 3.06376 36.9997C2.05434 36.9997 1.23767 36.1659 1.23767 35.1392C1.23767 34.1126 2.05434 33.2788 3.06376 33.2788Z" fill="#3C3C3C"/>
</svg>
