<svg width="80" height="83" viewBox="0 0 80 83" fill="none" xmlns="http://www.w3.org/2000/svg">
<path fill-rule="evenodd" clip-rule="evenodd" d="M77.9745 2.48837e-05H66.0478C65.7819 -0.00129496 65.5183 0.0499007 65.2723 0.150849C65.0263 0.251798 64.8027 0.400487 64.6145 0.588191C64.4262 0.775895 64.2769 0.999077 64.1753 1.24469C64.0737 1.49031 64.0217 1.75353 64.0224 2.01931V6.18772H15.8645V2.01931C15.8652 1.75362 15.8133 1.49048 15.7117 1.24494C15.6102 0.999386 15.461 0.77637 15.2729 0.588679C15.0847 0.400988 14.8612 0.252345 14.6153 0.151337C14.3694 0.0503296 14.1059 -0.00116268 13.8401 2.48837e-05H2.02543C1.75949 -0.00129496 1.49593 0.0499007 1.24992 0.150849C1.00391 0.251798 0.780337 0.400487 0.592058 0.588191C0.403779 0.775895 0.254549 0.999077 0.152934 1.24469C0.0513181 1.49031 -0.000656908 1.75353 6.26713e-06 2.01931V14.2849C-0.000656908 14.5507 0.0513181 14.8139 0.152934 15.0595C0.254549 15.3051 0.403779 15.5283 0.592058 15.716C0.780337 15.9037 1.00391 16.0522 1.24992 16.1531C1.49593 16.2541 1.75949 16.3055 2.02543 16.3042H13.9521C14.2181 16.3055 14.4816 16.2541 14.7276 16.1531C14.9736 16.0522 15.1972 15.9037 15.3855 15.716C15.5738 15.5283 15.7231 15.3051 15.8247 15.0595C15.9263 14.8139 15.9783 14.5507 15.9776 14.2849V10.1165H38.1435C37.9185 15.0647 25.8788 38.3462 18.2281 52.0713C18.0226 52.4754 17.9553 52.9356 18.0366 53.3816C18.1179 53.8275 18.3432 54.2346 18.6782 54.5403C25.5417 60.3882 27.2291 66.1261 27.6802 69.0551H25.0926C24.8267 69.0538 24.5631 69.105 24.3171 69.2059C24.0711 69.3069 23.8475 69.4556 23.6593 69.6432C23.471 69.831 23.3217 70.0539 23.2201 70.2995C23.1185 70.5451 23.0665 70.8086 23.0671 71.0744V80.9707C23.0656 81.2372 23.1168 81.5014 23.218 81.748C23.3192 81.9946 23.4682 82.2187 23.6566 82.4074C23.8449 82.5961 24.0688 82.7455 24.3153 82.8472C24.5618 82.9489 24.826 83.0009 25.0926 83H55.0223C55.289 83.0009 55.5532 82.9489 55.7997 82.8472C56.0462 82.7455 56.2701 82.5961 56.4584 82.4074C56.6468 82.2187 56.7958 81.9946 56.897 81.748C56.9981 81.5014 57.0494 81.2372 57.0478 80.9707V71.0744C57.0485 70.8086 56.9965 70.5451 56.8949 70.2995C56.7933 70.0539 56.644 69.831 56.4558 69.6432C56.2675 69.4556 56.0439 69.3069 55.7979 69.2059C55.5519 69.105 55.2883 69.0538 55.0223 69.0551H52.4328C52.8829 66.1261 54.5712 60.3882 61.4348 54.5403C61.7738 54.2373 62.0021 53.8299 62.0836 53.3828C62.1651 52.9356 62.0952 52.4743 61.8849 52.0713C54.2332 38.3462 42.1945 14.9547 41.9694 10.1165H64.0224V14.2849C64.0217 14.5507 64.0737 14.8139 64.1753 15.0595C64.2769 15.3051 64.4262 15.5283 64.6145 15.716C64.8027 15.9037 65.0263 16.0522 65.2723 16.1531C65.5183 16.2541 65.7819 16.3055 66.0478 16.3042H77.9745C78.2404 16.3055 78.504 16.2541 78.75 16.1531C78.996 16.0522 79.2196 15.9037 79.4079 15.716C79.5962 15.5283 79.7455 15.3051 79.8471 15.0595C79.9487 14.8139 80.0007 14.5507 80 14.2849V2.01931C80.0007 1.75353 79.9487 1.49031 79.8471 1.24469C79.7455 0.999077 79.5962 0.775895 79.4079 0.588191C79.2196 0.400487 78.996 0.251798 78.75 0.150849C78.504 0.0499007 78.2404 -0.00129496 77.9745 2.48837e-05ZM11.9266 12.2556H3.93784V3.93854H11.9266V12.2556ZM40.056 45.2136C40.5675 45.214 41.0674 45.3661 41.4924 45.6505C41.9175 45.9349 42.2486 46.3389 42.4438 46.8114C42.6391 47.2839 42.6897 47.8035 42.5893 48.3048C42.4889 48.8061 42.242 49.2663 41.8798 49.6273C41.5176 49.9883 41.0564 50.2339 40.5546 50.3329C40.0528 50.4318 39.5329 50.3799 39.0606 50.1835C38.5884 49.9871 38.185 49.6551 37.9016 49.2295C37.6182 48.8039 37.4674 48.304 37.4684 47.7928C37.4954 47.1162 37.7769 46.4747 38.2566 45.9965C38.7363 45.5184 39.379 45.2388 40.056 45.2136ZM53.1079 78.8416H27.1171V72.8735H53.1129V78.8416H53.1079ZM48.4949 68.935H31.6171C31.167 65.6762 29.4796 59.1586 22.391 52.521C25.0916 47.5728 33.1934 32.7281 38.0305 21.7021V41.6151C36.7184 42.0292 35.5734 42.8524 34.7634 43.9641C33.9535 45.0758 33.521 46.4176 33.5295 47.7928C33.5252 48.9963 33.8543 50.1776 34.4802 51.2058C35.1061 52.2341 36.0043 53.0692 37.0757 53.6188C38.1471 54.1684 39.3498 54.4109 40.5506 54.3197C41.7514 54.2285 42.9035 53.807 43.8794 53.1019C44.8554 52.3968 45.6172 51.4355 46.0804 50.3246C46.5436 49.2136 46.6902 47.9964 46.5039 46.8073C46.3177 45.6182 45.8059 44.5037 45.0252 43.5873C44.2445 42.6709 43.2253 41.9884 42.0805 41.6151V21.5923C47.0316 32.6183 55.0204 47.4629 57.72 52.521C50.6334 59.1586 48.945 65.6762 48.4949 68.935ZM76.0621 12.2556H68.0733V4.04861H76.0621V12.2556Z" fill="#3C3C3C"/>
</svg>
