<svg width="69" height="71" viewBox="0 0 69 71" fill="none" xmlns="http://www.w3.org/2000/svg">
<g stroke="white">
    <path d="M63.67 68.86L34.86 13.86L6.04999 68.86H63.67Z" stroke-width="2"/>
    <path d="M34.5 1C53 1 68 15.87 68 34.21C68 52.56 53 67.43 34.5 67.43C16 67.43 1 52.56 1 34.21C1 15.87 16 1 34.5 1Z" stroke-width="2"/>
    <path d="M34.86 63.86C36.85 63.86 38.46 65.46 38.46 67.43C38.46 69.4 36.85 71 34.86 71C32.87 71 31.26 69.4 31.26 67.43C31.26 65.46 32.87 63.86 34.86 63.86Z"/>
    <path d="M34.86 63.86C36.85 63.86 38.46 65.46 38.46 67.43C38.46 69.4 36.85 71 34.86 71C32.87 71 31.26 69.4 31.26 67.43C31.26 65.46 32.87 63.86 34.86 63.86Z" fill="white"/>
    <path d="M61.52 63.86C63.51 63.86 65.12 65.46 65.12 67.43C65.12 69.4 63.51 71 61.52 71C59.53 71 57.91 69.4 57.91 67.43C57.91 65.46 59.53 63.86 61.52 63.86Z" fill="white"/>
    <path d="M6.04 63.86C8.03 63.86 9.65 65.46 9.65 67.43C9.65 69.4 8.03 71 6.04 71C4.05 71 2.44 69.4 2.44 67.43C2.44 65.46 4.05 63.86 6.04 63.86Z" fill="white"/>
</g>
</svg>
