<svg width="79" height="91" viewBox="0 0 79 91" fill="none" xmlns="http://www.w3.org/2000/svg">
<path fill-rule="evenodd" clip-rule="evenodd" d="M21.7692 38.1193C21.3547 38.1207 20.9564 37.9589 20.66 37.6692L17.5598 34.5899C17.4144 34.446 17.299 34.2746 17.2202 34.0858C17.1414 33.8971 17.1009 33.6945 17.1009 33.49C17.1009 33.2855 17.1414 33.0829 17.2202 32.8942C17.299 32.7054 17.4144 32.534 17.5598 32.3901C17.8547 32.0971 18.2536 31.9327 18.6694 31.9327C19.0852 31.9327 19.4841 32.0971 19.779 32.3901L21.7682 34.36L26.8547 29.3108C27.1496 29.0178 27.5485 28.8534 27.9643 28.8534C28.3801 28.8534 28.779 29.0178 29.0739 29.3108C29.2196 29.4546 29.3352 29.6258 29.4141 29.8146C29.493 30.0034 29.5336 30.2058 29.5336 30.4105C29.5336 30.6151 29.493 30.8178 29.4141 31.0065C29.3352 31.1953 29.2196 31.3666 29.0739 31.5104L22.8733 37.6692C22.5776 37.9568 22.1817 38.1183 21.7692 38.1193ZM54.3275 35.0498H35.6516C35.2378 35.0498 34.841 34.8853 34.5484 34.5928C34.2558 34.3003 34.0915 33.9037 34.0915 33.49C34.0915 33.0763 34.2558 32.6797 34.5484 32.3872C34.841 32.0947 35.2378 31.9302 35.6516 31.9302H54.3275C54.7412 31.9302 55.1381 32.0947 55.4307 32.3872C55.7232 32.6797 55.8876 33.0763 55.8876 33.49C55.8876 33.9037 55.7232 34.3003 55.4307 34.5928C55.1381 34.8853 54.7412 35.0498 54.3275 35.0498ZM21.7692 64.7946C21.3547 64.7959 20.9564 64.6344 20.66 64.3447L17.5598 61.2652C17.4144 61.1213 17.299 60.9499 17.2202 60.7611C17.1414 60.5723 17.1009 60.3698 17.1009 60.1653C17.1009 59.9607 17.1414 59.7582 17.2202 59.5694C17.299 59.3807 17.4144 59.2095 17.5598 59.0656C17.8547 58.7726 18.2536 58.6082 18.6694 58.6082C19.0852 58.6082 19.4841 58.7726 19.779 59.0656L21.7682 61.0352L26.8547 55.9861C27.1496 55.6931 27.5485 55.5286 27.9643 55.5286C28.3801 55.5286 28.779 55.6931 29.0739 55.9861C29.2196 56.1299 29.3352 56.3011 29.4141 56.4899C29.493 56.6787 29.5336 56.8814 29.5336 57.086C29.5336 57.2906 29.493 57.493 29.4141 57.6818C29.3352 57.8706 29.2196 58.0419 29.0739 58.1856L22.8733 64.3447C22.5776 64.6323 22.1817 64.7936 21.7692 64.7946ZM54.3275 61.7251H35.6516C35.2378 61.7251 34.841 61.5609 34.5484 61.2684C34.2558 60.9758 34.0915 60.5789 34.0915 60.1653C34.0915 59.7516 34.2558 59.3549 34.5484 59.0624C34.841 58.7699 35.2378 58.6057 35.6516 58.6057H54.3275C54.7412 58.6057 55.1381 58.7699 55.4307 59.0624C55.7232 59.3549 55.8876 59.7516 55.8876 60.1653C55.8876 60.5789 55.7232 60.9758 55.4307 61.2684C55.1381 61.5609 54.7412 61.7251 54.3275 61.7251ZM21.7692 78.1421C21.3535 78.1397 20.9554 77.9746 20.66 77.6822L17.5598 74.6029C17.4144 74.459 17.299 74.2877 17.2202 74.0989C17.1414 73.9101 17.1009 73.7076 17.1009 73.503C17.1009 73.2985 17.1414 73.096 17.2202 72.9072C17.299 72.7184 17.4144 72.547 17.5598 72.4031C17.8547 72.1101 18.2536 71.9457 18.6694 71.9457C19.0852 71.9457 19.4841 72.1101 19.779 72.4031L21.7682 74.373L26.8547 69.3238C27.1496 69.0308 27.5485 68.8664 27.9643 68.8664C28.3801 68.8664 28.779 69.0308 29.0739 69.3238C29.2197 69.4685 29.3354 69.6405 29.4144 69.8301C29.4934 70.0197 29.5341 70.2232 29.5341 70.4286C29.5341 70.634 29.4934 70.8373 29.4144 71.0269C29.3354 71.2165 29.2197 71.3887 29.0739 71.5334L22.8733 77.6822C22.5786 77.9725 22.1828 78.1373 21.7692 78.1421ZM54.3275 75.0628H35.6516C35.2378 75.0628 34.841 74.8984 34.5484 74.6059C34.2558 74.3134 34.0915 73.9167 34.0915 73.503C34.0915 73.0894 34.2558 72.6927 34.5484 72.4002C34.841 72.1077 35.2378 71.9432 35.6516 71.9432H54.3275C54.7412 71.9432 55.1381 72.1077 55.4307 72.4002C55.7232 72.6927 55.8876 73.0894 55.8876 73.503C55.8876 73.9167 55.7232 74.3134 55.4307 74.6059C55.1381 74.8984 54.7412 75.0628 54.3275 75.0628ZM21.7692 51.4568C21.3547 51.4582 20.9564 51.2966 20.66 51.007L17.5598 47.9274C17.4143 47.7825 17.2989 47.6105 17.2202 47.4209C17.1414 47.2313 17.1009 47.0279 17.1009 46.8226C17.1009 46.6174 17.1414 46.4142 17.2202 46.2246C17.2989 46.035 17.4143 45.8628 17.5598 45.7178C17.8571 45.4294 18.2551 45.268 18.6694 45.268C19.0837 45.268 19.4817 45.4294 19.779 45.7178L21.7682 47.6975L26.8547 42.6483C27.1496 42.3553 27.5485 42.1909 27.9643 42.1909C28.3801 42.1909 28.779 42.3553 29.0739 42.6483C29.2197 42.792 29.3354 42.9633 29.4144 43.1521C29.4934 43.3409 29.5341 43.5436 29.5341 43.7482C29.5341 43.9529 29.4934 44.1555 29.4144 44.3443C29.3354 44.5331 29.2197 44.7044 29.0739 44.8481L22.8733 51.007C22.5776 51.2945 22.1817 51.4558 21.7692 51.4568ZM54.3275 48.3873H35.6516C35.2378 48.3873 34.841 48.2231 34.5484 47.9306C34.2558 47.6381 34.0915 47.2414 34.0915 46.8278C34.0915 46.4141 34.2558 46.0172 34.5484 45.7247C34.841 45.4322 35.2378 45.268 35.6516 45.268H54.3275C54.7412 45.268 55.1381 45.4322 55.4307 45.7247C55.7232 46.0172 55.8876 46.4141 55.8876 46.8278C55.8876 47.2414 55.7232 47.6381 55.4307 47.9306C55.1381 48.2231 54.7412 48.3873 54.3275 48.3873ZM76.9068 11.4138H58.4389C58.3245 9.86576 57.6269 8.41892 56.4871 7.36492C55.3473 6.31093 53.8499 5.72834 52.2973 5.73484H46.3157C46.2956 4.207 45.6745 2.74857 44.5867 1.67524C43.4989 0.601918 42.032 0 40.5036 0C38.9752 0 37.5083 0.601918 36.4205 1.67524C35.3327 2.74857 34.7115 4.207 34.6915 5.73484H28.6969C27.1457 5.72993 25.6504 6.3132 24.5124 7.36712C23.3745 8.42105 22.6787 9.86715 22.5653 11.4138H2.09219C1.53905 11.4127 1.0081 11.6312 0.615846 12.0211C0.223595 12.411 0.00211828 12.9405 0 13.4935V88.9203C0.000260157 89.1943 0.0546058 89.4657 0.159989 89.7187C0.265373 89.9717 0.41969 90.2014 0.614076 90.3946C0.808461 90.5878 1.03908 90.7406 1.29273 90.8445C1.54638 90.9484 1.81808 91.0013 2.09219 91H76.9068C77.1809 91.0013 77.4526 90.9486 77.7064 90.8447C77.9601 90.7408 78.1908 90.5878 78.3853 90.3946C78.5797 90.2014 78.7341 89.9717 78.8396 89.7187C78.9451 89.4657 78.9996 89.1944 79 88.9203V13.4935C78.9976 12.9404 78.7759 12.411 78.3835 12.0211C77.9911 11.6312 77.46 11.4127 76.9068 11.4138ZM26.7247 11.8539C26.726 11.3332 26.9341 10.8341 27.3031 10.4667C27.6722 10.0992 28.172 9.89323 28.6929 9.89402H35.2326C36.1939 9.89695 37.117 9.51884 37.7997 8.84221C38.4823 8.16557 38.8686 7.2458 38.8739 6.28479V5.80489C38.8739 5.37346 39.0453 4.95977 39.3505 4.6547C39.6556 4.34964 40.0696 4.17823 40.5011 4.17823C40.9327 4.17823 41.3465 4.34964 41.6517 4.6547C41.9568 4.95977 42.1282 5.37346 42.1282 5.80489V6.28479C42.1327 7.24413 42.5173 8.16254 43.1977 8.83903C43.8782 9.51552 44.799 9.89483 45.7586 9.89402H52.2983C52.5569 9.89258 52.8133 9.94223 53.0527 10.04C53.2922 10.1378 53.5099 10.2817 53.6936 10.4637C53.8773 10.6458 54.0232 10.8623 54.123 11.1008C54.2229 11.3394 54.2747 11.5953 54.2755 11.8539V16.1132H26.7267V11.8539H26.7247ZM74.8146 86.8408H4.18438V15.5732H22.5393V18.1926C22.5395 18.4667 22.5939 18.7381 22.6993 18.9911C22.8047 19.244 22.959 19.4738 23.1533 19.667C23.3477 19.8602 23.5784 20.013 23.8321 20.1168C24.0857 20.2207 24.3573 20.2737 24.6315 20.2723H56.3657C56.6398 20.2737 56.9115 20.2207 57.1651 20.1168C57.4188 20.013 57.6494 19.8602 57.8438 19.667C58.0382 19.4738 58.1925 19.244 58.2979 18.9911C58.4033 18.7381 58.4576 18.4667 58.4579 18.1926V15.5732H74.8126V86.8408H74.8146ZM40.5001 10.154C40.8952 10.156 41.281 10.275 41.6086 10.496C41.9362 10.7169 42.191 11.0299 42.3409 11.3955C42.4908 11.761 42.5289 12.1628 42.4506 12.5501C42.3723 12.9373 42.181 13.2925 41.9009 13.5711C41.6208 13.8498 41.2644 14.0393 40.8766 14.1157C40.4889 14.192 40.0872 14.1519 39.7223 14.0002C39.3574 13.8486 39.0457 13.5922 38.8263 13.2636C38.607 12.9349 38.4899 12.5487 38.4899 12.1536C38.4899 11.8902 38.5419 11.6295 38.6431 11.3862C38.7442 11.1429 38.8925 10.922 39.0793 10.7362C39.2661 10.5503 39.4877 10.4033 39.7316 10.3034C39.9754 10.2035 40.2366 10.1527 40.5001 10.154Z" fill="#3C3C3C"/>
</svg>
