<svg width="23" height="38" viewBox="0 0 23 38" fill="none" xmlns="http://www.w3.org/2000/svg">
<path d="M11.5 10.76C10.58 10.76 9.84 11.5 9.84 12.42C9.84 13.33 10.58 14.07 11.5 14.07C12.41 14.07 13.15 13.33 13.15 12.42C13.15 11.5 12.41 10.76 11.5 10.76ZM10.54 0.98999C4.61 1.46999 0 6.43999 0 12.42V26.49C0 32.84 5.16 38 11.5 38C17.84 38 23 32.84 23 26.49V12.42C23 6.43999 18.38 1.46999 12.45 0.98999H10.54ZM11.5 36.09C6.21 36.09 1.91 31.78 1.91 26.49V12.42C1.91 7.11999 6.21 2.80999 11.5 2.80999C16.79 2.80999 21.09 7.11999 21.09 12.42V26.49C21.09 31.78 16.79 36.09 11.5 36.09Z" fill="white"/>
</svg>
